<?xml version="1.0" encoding="UTF-8"?>
<svg xmlns="http://www.w3.org/2000/svg" xmlns:xlink="http://www.w3.org/1999/xlink" width="40px" height="40px" viewBox="0 0 40 40" version="1.1">
<defs>
<filter id="alpha" filterUnits="objectBoundingBox" x="0%" y="0%" width="100%" height="100%">
  <feColorMatrix type="matrix" in="SourceGraphic" values="0 0 0 0 1 0 0 0 0 1 0 0 0 0 1 0 0 0 1 0"/>
</filter>
<mask id="mask0">
  <g filter="url(#alpha)">
<rect x="0" y="0" width="40" height="40" style="fill:rgb(0%,0%,0%);fill-opacity:0.701961;stroke:none;"/>
  </g>
</mask>
<clipPath id="clip1">
  <rect x="0" y="0" width="40" height="40"/>
</clipPath>
<g id="surface5" clip-path="url(#clip1)">
<path style=" stroke:none;fill-rule:nonzero;fill:rgb(0%,0%,0%);fill-opacity:1;" d="M 8.601562 18.003906 C 11.3125 16.582031 13.78125 15.179688 16.359375 14.007812 C 16.984375 13.726562 18.078125 14.015625 18.761719 14.386719 C 19.625 14.851562 20.253906 15.082031 21.097656 14.398438 C 22.101562 13.585938 23.152344 13.648438 24.3125 14.300781 C 26.570312 15.574219 28.902344 16.710938 31.398438 18.007812 C 29.308594 19.246094 27.132812 19.71875 24.921875 19.34375 C 21.535156 18.765625 18.214844 18.816406 14.832031 19.351562 C 12.71875 19.6875 10.621094 19.242188 8.601562 18.003906 Z M 8.601562 18.003906 "/>
<path style=" stroke:none;fill-rule:nonzero;fill:rgb(0%,0%,0%);fill-opacity:1;" d="M 8.757812 18.839844 C 16.3125 22.03125 23.632812 22.035156 30.964844 18.929688 C 30.140625 22.117188 25.09375 25.9375 21.238281 26.34375 C 16.390625 26.851562 11.316406 23.882812 8.757812 18.839844 Z M 8.757812 18.839844 "/>
</g>
</defs>
<g id="surface1">
<path style=" stroke:none;fill-rule:nonzero;fill:rgb(72.54902%,26.666667%,26.666667%);fill-opacity:1;" d="M 20 0 C 31.046875 0 40 8.953125 40 20 C 40 31.046875 31.046875 40 20 40 C 8.953125 40 0 31.046875 0 20 C 0 8.953125 8.953125 0 20 0 Z M 20 0 "/>
<use xlink:href="#surface5" mask="url(#mask0)"/>
</g>
</svg>
