<?xml version="1.0" encoding="UTF-8"?>
<svg xmlns="http://www.w3.org/2000/svg" xmlns:xlink="http://www.w3.org/1999/xlink" width="40px" height="40px" viewBox="0 0 40 40" version="1.1">
<g id="surface1">
<path style=" stroke:none;fill-rule:nonzero;fill:rgb(26.666667%,72.54902%,47.843137%);fill-opacity:1;" d="M 20 0 C 31.046875 0 40 8.953125 40 20 C 40 31.046875 31.046875 40 20 40 C 8.953125 40 0 31.046875 0 20 C 0 8.953125 8.953125 0 20 0 Z M 20 0 "/>
<path style=" stroke:none;fill-rule:nonzero;fill:rgb(0%,0%,0%);fill-opacity:0.701961;" d="M 29 12 C 30.765625 12 32.199219 13.433594 32.199219 15.199219 L 32.199219 24.800781 C 32.199219 26.566406 30.765625 28 29 28 L 11 28 C 9.234375 28 7.800781 26.566406 7.800781 24.800781 L 7.800781 15.199219 C 7.800781 13.433594 9.234375 12 11 12 Z M 16.648438 21.960938 L 16.648438 23.921875 L 19.042969 23.921875 L 19.042969 25.882812 L 20.957031 25.882812 L 20.957031 23.921875 L 21.914062 23.921875 C 22.550781 23.921875 23.160156 23.664062 23.609375 23.203125 C 24.058594 22.742188 24.3125 22.121094 24.3125 21.46875 C 24.3125 20.820312 24.058594 20.195312 23.609375 19.738281 C 23.160156 19.277344 22.550781 19.019531 21.914062 19.019531 L 18.082031 19.019531 C 17.957031 19.019531 17.835938 18.96875 17.746094 18.875 C 17.65625 18.785156 17.605469 18.660156 17.605469 18.53125 C 17.605469 18.398438 17.65625 18.273438 17.746094 18.183594 C 17.835938 18.089844 17.957031 18.039062 18.082031 18.039062 L 23.351562 18.039062 L 23.351562 16.078125 L 20.957031 16.078125 L 20.957031 14.117188 L 19.042969 14.117188 L 19.042969 16.078125 L 18.082031 16.078125 C 17.449219 16.078125 16.839844 16.335938 16.390625 16.796875 C 15.941406 17.257812 15.6875 17.878906 15.6875 18.53125 C 15.6875 19.179688 15.941406 19.804688 16.390625 20.261719 C 16.839844 20.722656 17.449219 20.980469 18.082031 20.980469 L 21.914062 20.980469 C 22.042969 20.980469 22.164062 21.03125 22.253906 21.125 C 22.34375 21.214844 22.394531 21.339844 22.394531 21.46875 C 22.394531 21.601562 22.34375 21.726562 22.253906 21.816406 C 22.164062 21.910156 22.042969 21.960938 21.914062 21.960938 Z M 16.648438 21.960938 "/>
</g>
</svg>
