<?xml version="1.0" encoding="UTF-8"?>
<svg xmlns="http://www.w3.org/2000/svg" xmlns:xlink="http://www.w3.org/1999/xlink" width="40px" height="40px" viewBox="0 0 40 40" version="1.1">
<g id="surface1">
<path style=" stroke:none;fill-rule:nonzero;fill:rgb(26.666667%,67.058824%,72.54902%);fill-opacity:1;" d="M 20 0 C 31.046875 0 40 8.953125 40 20 C 40 31.046875 31.046875 40 20 40 C 8.953125 40 0 31.046875 0 20 C 0 8.953125 8.953125 0 20 0 Z M 20 0 "/>
<path style=" stroke:none;fill-rule:nonzero;fill:rgb(0%,0%,0%);fill-opacity:0.701961;" d="M 27.875 18.117188 C 27.308594 18.117188 26.742188 18.222656 26.210938 18.421875 L 23.738281 14.175781 L 26.304688 14.175781 C 26.511719 14.175781 26.710938 14.257812 26.859375 14.40625 C 27.007812 14.554688 27.089844 14.753906 27.089844 14.964844 C 27.089844 15.175781 27.171875 15.375 27.320312 15.523438 C 27.46875 15.671875 27.667969 15.753906 27.875 15.753906 C 28.085938 15.753906 28.285156 15.671875 28.433594 15.523438 C 28.578125 15.375 28.664062 15.175781 28.664062 14.964844 C 28.664062 14.335938 28.414062 13.734375 27.972656 13.292969 C 27.527344 12.847656 26.929688 12.601562 26.304688 12.601562 L 22.371094 12.601562 C 22.230469 12.601562 22.097656 12.636719 21.976562 12.707031 C 21.859375 12.777344 21.757812 12.875 21.691406 12.996094 C 21.621094 13.113281 21.585938 13.25 21.585938 13.390625 C 21.585938 13.527344 21.621094 13.664062 21.691406 13.78125 L 22.835938 15.753906 L 17.183594 15.753906 L 15.578125 12.992188 C 15.507812 12.875 15.410156 12.773438 15.289062 12.707031 C 15.171875 12.636719 15.035156 12.601562 14.898438 12.601562 L 12.144531 12.601562 C 11.9375 12.601562 11.734375 12.683594 11.589844 12.832031 C 11.441406 12.980469 11.359375 13.179688 11.359375 13.386719 C 11.359375 13.597656 11.441406 13.796875 11.589844 13.945312 C 11.734375 14.09375 11.9375 14.175781 12.144531 14.175781 L 14.445312 14.175781 L 15.792969 16.492188 L 14.25 18.617188 C 13.1875 18.085938 11.964844 17.972656 10.824219 18.300781 C 9.683594 18.628906 8.710938 19.375 8.089844 20.390625 C 7.472656 21.402344 7.257812 22.617188 7.492188 23.78125 C 7.722656 24.949219 8.382812 25.984375 9.339844 26.6875 C 10.296875 27.386719 11.484375 27.703125 12.664062 27.570312 C 13.84375 27.4375 14.929688 26.863281 15.707031 25.964844 C 16.484375 25.066406 16.898438 23.90625 16.863281 22.71875 C 16.828125 21.53125 16.347656 20.398438 15.519531 19.546875 L 16.660156 17.980469 L 19.722656 23.242188 C 19.773438 23.339844 19.839844 23.421875 19.921875 23.492188 C 20.003906 23.5625 20.097656 23.613281 20.203125 23.644531 C 20.304688 23.675781 20.414062 23.6875 20.519531 23.671875 C 20.625 23.660156 20.730469 23.625 20.824219 23.574219 C 20.914062 23.519531 20.996094 23.445312 21.0625 23.359375 C 21.125 23.273438 21.171875 23.175781 21.195312 23.070312 C 21.21875 22.964844 21.222656 22.855469 21.203125 22.75 C 21.183594 22.644531 21.144531 22.542969 21.082031 22.453125 L 18.101562 17.328125 L 23.753906 17.328125 L 24.855469 19.21875 C 24.003906 19.933594 23.429688 20.921875 23.234375 22.019531 C 23.039062 23.113281 23.238281 24.242188 23.789062 25.207031 C 24.34375 26.171875 25.21875 26.910156 26.261719 27.289062 C 27.304688 27.671875 28.449219 27.671875 29.492188 27.292969 C 30.535156 26.914062 31.410156 26.175781 31.96875 25.214844 C 32.523438 24.25 32.722656 23.121094 32.527344 22.027344 C 32.335938 20.929688 31.761719 19.9375 30.914062 19.222656 C 30.0625 18.507812 28.988281 18.117188 27.875 18.117188 Z M 15.292969 22.847656 C 15.292969 23.523438 15.074219 24.179688 14.675781 24.722656 C 14.277344 25.265625 13.714844 25.664062 13.070312 25.863281 C 12.425781 26.058594 11.738281 26.046875 11.101562 25.824219 C 10.46875 25.601562 9.921875 25.179688 9.542969 24.621094 C 9.164062 24.0625 8.976562 23.398438 9 22.722656 C 9.027344 22.050781 9.269531 21.402344 9.691406 20.875 C 10.109375 20.351562 10.6875 19.972656 11.339844 19.800781 C 11.988281 19.628906 12.679688 19.667969 13.304688 19.917969 L 11.511719 22.378906 C 11.445312 22.464844 11.398438 22.558594 11.367188 22.660156 C 11.339844 22.765625 11.335938 22.871094 11.347656 22.976562 C 11.363281 23.082031 11.398438 23.179688 11.453125 23.273438 C 11.507812 23.363281 11.578125 23.441406 11.664062 23.503906 C 11.75 23.566406 11.847656 23.613281 11.949219 23.636719 C 12.054688 23.660156 12.160156 23.664062 12.265625 23.644531 C 12.367188 23.625 12.46875 23.585938 12.554688 23.527344 C 12.644531 23.472656 12.722656 23.394531 12.78125 23.308594 L 14.574219 20.84375 C 15.039062 21.410156 15.292969 22.117188 15.292969 22.847656 Z M 27.875 26 C 27.253906 26 26.644531 25.8125 26.125 25.464844 C 25.609375 25.117188 25.207031 24.625 24.96875 24.046875 C 24.730469 23.46875 24.671875 22.835938 24.796875 22.222656 C 24.917969 21.609375 25.222656 21.046875 25.664062 20.609375 L 27.195312 23.242188 C 27.246094 23.339844 27.3125 23.421875 27.394531 23.492188 C 27.476562 23.5625 27.570312 23.613281 27.675781 23.644531 C 27.777344 23.675781 27.886719 23.6875 27.992188 23.671875 C 28.097656 23.660156 28.203125 23.625 28.296875 23.574219 C 28.386719 23.519531 28.46875 23.445312 28.53125 23.359375 C 28.597656 23.273438 28.644531 23.175781 28.667969 23.070312 C 28.691406 22.964844 28.695312 22.855469 28.675781 22.75 C 28.65625 22.644531 28.617188 22.542969 28.554688 22.453125 L 27.019531 19.8125 C 27.453125 19.691406 27.90625 19.664062 28.351562 19.730469 C 28.796875 19.796875 29.222656 19.960938 29.597656 20.207031 C 29.976562 20.453125 30.292969 20.777344 30.535156 21.160156 C 30.777344 21.539062 30.933594 21.96875 30.996094 22.414062 C 31.054688 22.863281 31.023438 23.316406 30.894531 23.746094 C 30.765625 24.179688 30.546875 24.578125 30.25 24.917969 C 29.953125 25.257812 29.589844 25.53125 29.179688 25.71875 C 28.769531 25.90625 28.328125 26 27.875 26 Z M 27.875 26 "/>
</g>
</svg>
