<?xml version="1.0" encoding="UTF-8"?>
<svg xmlns="http://www.w3.org/2000/svg" xmlns:xlink="http://www.w3.org/1999/xlink" width="40px" height="40px" viewBox="0 0 40 40" version="1.1">
<g id="surface1">
<path style=" stroke:none;fill-rule:nonzero;fill:rgb(26.666667%,67.058824%,72.54902%);fill-opacity:1;" d="M 20 0 C 31.046875 0 40 8.953125 40 20 C 40 31.046875 31.046875 40 20 40 C 8.953125 40 0 31.046875 0 20 C 0 8.953125 8.953125 0 20 0 Z M 20 0 "/>
<path style=" stroke:none;fill-rule:nonzero;fill:rgb(0%,0%,0%);fill-opacity:0.701961;" d="M 16.035156 13 L 23.964844 13 C 24.558594 13 25.089844 13.375 25.285156 13.9375 L 26.425781 17.199219 L 13.574219 17.199219 L 14.714844 13.9375 C 14.910156 13.375 15.441406 13 16.035156 13 Z M 12.074219 13.011719 L 10.53125 17.410156 C 9.515625 17.828125 8.800781 18.832031 8.800781 20 L 8.800781 23.5 C 8.800781 24.535156 9.363281 25.441406 10.199219 25.921875 L 10.199219 28.398438 C 10.199219 29.175781 10.824219 29.800781 11.601562 29.800781 L 13 29.800781 C 13.773438 29.800781 14.398438 29.175781 14.398438 28.398438 L 14.398438 26.300781 L 25.601562 26.300781 L 25.601562 28.398438 C 25.601562 29.175781 26.226562 29.800781 27 29.800781 L 28.398438 29.800781 C 29.175781 29.800781 29.800781 29.175781 29.800781 28.398438 L 29.800781 25.921875 C 30.636719 25.4375 31.199219 24.535156 31.199219 23.5 L 31.199219 20 C 31.199219 18.832031 30.480469 17.828125 29.46875 17.410156 L 27.925781 13.011719 C 27.335938 11.328125 25.75 10.199219 23.964844 10.199219 L 16.035156 10.199219 C 14.25 10.199219 12.664062 11.328125 12.074219 13.011719 Z M 17.898438 20.699219 L 22.101562 20.699219 C 22.484375 20.699219 22.800781 21.015625 22.800781 21.398438 L 22.800781 22.800781 C 22.800781 23.183594 22.484375 23.5 22.101562 23.5 L 17.898438 23.5 C 17.515625 23.5 17.199219 23.183594 17.199219 22.800781 L 17.199219 21.398438 C 17.199219 21.015625 17.515625 20.699219 17.898438 20.699219 Z M 10.898438 21.050781 C 10.898438 20.46875 11.367188 20 11.949219 20 L 13.351562 20 C 13.933594 20 14.398438 20.46875 14.398438 21.050781 C 14.398438 21.632812 13.933594 22.101562 13.351562 22.101562 L 11.949219 22.101562 C 11.367188 22.101562 10.898438 21.632812 10.898438 21.050781 Z M 26.648438 20 L 28.050781 20 C 28.632812 20 29.101562 20.46875 29.101562 21.050781 C 29.101562 21.632812 28.632812 22.101562 28.050781 22.101562 L 26.648438 22.101562 C 26.066406 22.101562 25.601562 21.632812 25.601562 21.050781 C 25.601562 20.46875 26.066406 20 26.648438 20 Z M 26.648438 20 "/>
</g>
</svg>
