<?xml version="1.0" encoding="UTF-8"?>
<svg xmlns="http://www.w3.org/2000/svg" xmlns:xlink="http://www.w3.org/1999/xlink" width="40px" height="40px" viewBox="0 0 40 40" version="1.1">
<g id="surface1">
<path style=" stroke:none;fill-rule:nonzero;fill:rgb(72.54902%,48.627451%,26.666667%);fill-opacity:1;" d="M 20 0 C 31.046875 0 40 8.953125 40 20 C 40 31.046875 31.046875 40 20 40 C 8.953125 40 0 31.046875 0 20 C 0 8.953125 8.953125 0 20 0 Z M 20 0 "/>
<path style=" stroke:none;fill-rule:nonzero;fill:rgb(0%,0%,0%);fill-opacity:0.701961;" d="M 27.503906 13.0625 L 26.472656 13.0625 L 26.472656 12.03125 C 26.472656 11.757812 26.363281 11.496094 26.171875 11.300781 C 25.976562 11.109375 25.714844 11 25.441406 11 L 13.0625 11 C 12.789062 11 12.527344 11.109375 12.332031 11.300781 C 12.140625 11.496094 12.03125 11.757812 12.03125 12.03125 L 12.03125 21.316406 C 12.03125 22.410156 12.464844 23.460938 13.238281 24.234375 C 14.015625 25.007812 15.0625 25.441406 16.15625 25.441406 L 22.347656 25.441406 C 24.265625 25.441406 25.867188 24.121094 26.328125 22.347656 L 27.503906 22.347656 C 28.324219 22.347656 29.113281 22.019531 29.695312 21.441406 C 30.273438 20.859375 30.601562 20.074219 30.601562 19.253906 L 30.601562 16.15625 C 30.601562 15.335938 30.273438 14.550781 29.695312 13.96875 C 29.113281 13.390625 28.324219 13.0625 27.503906 13.0625 Z M 28.535156 19.253906 C 28.535156 19.527344 28.429688 19.789062 28.234375 19.980469 C 28.042969 20.175781 27.777344 20.285156 27.503906 20.285156 L 26.472656 20.285156 L 26.472656 15.125 L 27.503906 15.125 C 27.777344 15.125 28.042969 15.234375 28.234375 15.429688 C 28.429688 15.621094 28.535156 15.882812 28.535156 16.15625 Z M 26.472656 27.503906 L 11 27.503906 C 11 29.210938 12.386719 30.601562 14.09375 30.601562 L 25.441406 30.601562 C 27.148438 30.601562 28.535156 29.210938 28.535156 27.503906 Z M 26.472656 27.503906 "/>
</g>
</svg>
