<?xml version="1.0" encoding="UTF-8"?>
<svg xmlns="http://www.w3.org/2000/svg" xmlns:xlink="http://www.w3.org/1999/xlink" width="40px" height="40px" viewBox="0 0 40 40" version="1.1">
<g id="surface1">
<path style=" stroke:none;fill-rule:nonzero;fill:rgb(72.54902%,59.607843%,26.666667%);fill-opacity:1;" d="M 20 0 C 31.046875 0 40 8.953125 40 20 C 40 31.046875 31.046875 40 20 40 C 8.953125 40 0 31.046875 0 20 C 0 8.953125 8.953125 0 20 0 Z M 20 0 "/>
<path style=" stroke:none;fill-rule:nonzero;fill:rgb(0%,0%,0%);fill-opacity:0.701961;" d="M 20 9.398438 L 11 14.113281 L 11 16 L 29 16 L 29 14.113281 M 24.261719 17.886719 L 24.261719 24.484375 L 27.105469 24.484375 L 27.105469 17.886719 M 11 29.199219 L 29 29.199219 L 29 26.371094 L 11 26.371094 M 18.578125 17.886719 L 18.578125 24.484375 L 21.421875 24.484375 L 21.421875 17.886719 M 12.894531 17.886719 L 12.894531 24.484375 L 15.738281 24.484375 L 15.738281 17.886719 Z M 12.894531 17.886719 "/>
</g>
</svg>
