<?xml version="1.0" encoding="UTF-8"?>
<svg xmlns="http://www.w3.org/2000/svg" xmlns:xlink="http://www.w3.org/1999/xlink" width="40px" height="40px" viewBox="0 0 40 40" version="1.1">
<g id="surface1">
<path style=" stroke:none;fill-rule:nonzero;fill:rgb(38.431373%,72.54902%,26.666667%);fill-opacity:1;" d="M 20 0 C 31.046875 0 40 8.953125 40 20 C 40 31.046875 31.046875 40 20 40 C 8.953125 40 0 31.046875 0 20 C 0 8.953125 8.953125 0 20 0 Z M 20 0 "/>
<path style=" stroke:none;fill-rule:nonzero;fill:rgb(0%,0%,0%);fill-opacity:0.701961;" d="M 19.996094 27.382812 C 20.90625 27.382812 21.683594 27.953125 21.980469 28.742188 C 22.5625 28.617188 23.125 28.4375 23.664062 28.195312 L 21.800781 23.816406 C 21.246094 24.082031 20.644531 24.21875 19.996094 24.21875 C 19.347656 24.21875 18.746094 24.082031 18.191406 23.816406 L 16.328125 28.195312 C 16.867188 28.4375 17.429688 28.617188 18.011719 28.742188 C 18.308594 27.953125 19.082031 27.382812 19.996094 27.382812 Z M 26.625 26.074219 C 26.359375 25.714844 26.15625 25.273438 26.15625 24.746094 C 26.15625 23.597656 27.113281 22.636719 28.277344 22.636719 L 28.609375 22.667969 C 28.871094 21.824219 29.011719 20.929688 29.011719 20 C 29.011719 19.070312 28.871094 18.175781 28.609375 17.363281 L 28.277344 17.363281 C 27.101562 17.363281 26.15625 16.425781 26.15625 15.253906 C 26.15625 14.726562 26.328125 14.292969 26.625 13.925781 C 25.386719 12.585938 23.765625 11.65625 21.980469 11.257812 C 21.683594 12.046875 20.90625 12.617188 19.996094 12.617188 C 19.082031 12.617188 18.308594 12.046875 18.011719 11.257812 C 16.226562 11.65625 14.605469 12.585938 13.367188 13.925781 C 13.664062 14.292969 13.84375 14.757812 13.84375 15.253906 C 13.84375 15.8125 13.621094 16.351562 13.222656 16.746094 C 12.824219 17.140625 12.285156 17.363281 11.722656 17.363281 L 11.382812 17.363281 C 11.117188 18.1875 10.980469 19.070312 10.980469 20 C 10.980469 20.9375 11.128906 21.835938 11.394531 22.6875 L 11.722656 22.636719 C 12.902344 22.636719 13.84375 23.605469 13.84375 24.746094 C 13.84375 25.273438 13.675781 25.726562 13.378906 26.085938 C 13.71875 26.453125 14.097656 26.792969 14.492188 27.097656 L 16.507812 22.394531 C 16.03125 21.707031 15.753906 20.886719 15.753906 20 C 15.753906 18.882812 16.199219 17.808594 16.996094 17.015625 C 17.792969 16.226562 18.871094 15.78125 19.996094 15.78125 C 21.121094 15.78125 22.199219 16.226562 22.996094 17.015625 C 23.792969 17.808594 24.238281 18.882812 24.238281 20 C 24.238281 20.886719 23.960938 21.707031 23.484375 22.394531 L 25.5 27.097656 C 25.902344 26.792969 26.273438 26.441406 26.625 26.074219 Z M 19.996094 31.601562 C 18.933594 31.601562 18.042969 30.820312 17.875 29.796875 C 17.199219 29.652344 16.542969 29.441406 15.914062 29.164062 L 14.875 31.601562 L 12.570312 31.601562 L 14.066406 28.097656 C 13.503906 27.699219 12.988281 27.234375 12.53125 26.71875 C 12.273438 26.824219 12.011719 26.855469 11.722656 26.855469 C 11.160156 26.855469 10.621094 26.632812 10.222656 26.238281 C 9.824219 25.839844 9.601562 25.304688 9.601562 24.746094 C 9.601562 24.089844 9.921875 23.5 10.417969 23.109375 C 9.757812 21.101562 9.753906 18.933594 10.410156 16.921875 C 10.0625 16.648438 9.808594 16.277344 9.683594 15.855469 C 9.5625 15.433594 9.574219 14.984375 9.71875 14.570312 C 9.863281 14.152344 10.132812 13.792969 10.492188 13.539062 C 10.851562 13.285156 11.28125 13.144531 11.722656 13.144531 C 12 13.144531 12.265625 13.207031 12.496094 13.304688 C 13.910156 11.726562 15.796875 10.640625 17.875 10.203125 C 18.042969 9.179688 18.933594 8.398438 19.996094 8.398438 C 21.054688 8.398438 21.949219 9.179688 22.117188 10.203125 C 24.238281 10.644531 26.082031 11.753906 27.484375 13.292969 C 27.726562 13.199219 27.992188 13.144531 28.277344 13.144531 C 28.839844 13.144531 29.382812 13.367188 29.777344 13.761719 C 30.175781 14.160156 30.398438 14.695312 30.398438 15.253906 C 30.398438 15.574219 30.324219 15.890625 30.183594 16.175781 C 30.042969 16.460938 29.835938 16.714844 29.582031 16.910156 C 29.902344 17.890625 30.070312 18.945312 30.070312 20 C 30.070312 21.054688 29.902344 22.109375 29.582031 23.089844 C 30.070312 23.480469 30.398438 24.082031 30.398438 24.746094 C 30.398438 25.925781 29.457031 26.855469 28.277344 26.855469 C 27.992188 26.855469 27.726562 26.8125 27.472656 26.707031 C 27.007812 27.222656 26.488281 27.6875 25.925781 28.097656 L 27.417969 31.601562 L 25.117188 31.601562 L 24.078125 29.164062 C 23.441406 29.4375 22.785156 29.660156 22.117188 29.796875 C 21.949219 30.820312 21.054688 31.601562 19.996094 31.601562 Z M 19.996094 31.601562 "/>
</g>
</svg>
