<?xml version="1.0" encoding="UTF-8"?>
<svg xmlns="http://www.w3.org/2000/svg" xmlns:xlink="http://www.w3.org/1999/xlink" width="40px" height="40px" viewBox="0 0 40 40" version="1.1">
<g id="surface1">
<path style=" stroke:none;fill-rule:nonzero;fill:rgb(26.666667%,72.54902%,69.803922%);fill-opacity:1;" d="M 20 0 C 31.046875 0 40 8.953125 40 20 C 40 31.046875 31.046875 40 20 40 C 8.953125 40 0 31.046875 0 20 C 0 8.953125 8.953125 0 20 0 Z M 20 0 "/>
<path style=" stroke:none;fill-rule:nonzero;fill:rgb(0%,0%,0%);fill-opacity:0.701961;" d="M 28 21 L 28 28 C 28 28.53125 27.789062 29.039062 27.414062 29.414062 C 27.039062 29.789062 26.53125 30 26 30 C 25.46875 30 24.960938 29.789062 24.585938 29.414062 C 24.210938 29.039062 24 28.53125 24 28 L 24 23 L 22 23 L 22 13 C 22 12.203125 22.316406 11.441406 22.878906 10.878906 C 23.441406 10.316406 24.203125 10 25 10 L 28 10 Z M 14 20 C 13.46875 20 12.960938 19.789062 12.585938 19.414062 C 12.210938 19.039062 12 18.53125 12 18 L 12 11 C 12 10.734375 12.105469 10.480469 12.292969 10.292969 C 12.480469 10.105469 12.734375 10 13 10 C 13.265625 10 13.519531 10.105469 13.707031 10.292969 C 13.894531 10.480469 14 10.734375 14 11 L 14 15 L 15 15 L 15 11 C 15 10.734375 15.105469 10.480469 15.292969 10.292969 C 15.480469 10.105469 15.734375 10 16 10 C 16.265625 10 16.519531 10.105469 16.707031 10.292969 C 16.894531 10.480469 17 10.734375 17 11 L 17 15 L 18 15 L 18 11 C 18 10.734375 18.105469 10.480469 18.292969 10.292969 C 18.480469 10.105469 18.734375 10 19 10 C 19.265625 10 19.519531 10.105469 19.707031 10.292969 C 19.894531 10.480469 20 10.734375 20 11 L 20 18 C 20 18.53125 19.789062 19.039062 19.414062 19.414062 C 19.039062 19.789062 18.53125 20 18 20 L 18 28 C 18 28.53125 17.789062 29.039062 17.414062 29.414062 C 17.039062 29.789062 16.53125 30 16 30 C 15.46875 30 14.960938 29.789062 14.585938 29.414062 C 14.210938 29.039062 14 28.53125 14 28 Z M 14 20 "/>
</g>
</svg>
