<?xml version="1.0" encoding="UTF-8"?>
<svg xmlns="http://www.w3.org/2000/svg" xmlns:xlink="http://www.w3.org/1999/xlink" width="40px" height="40px" viewBox="0 0 40 40" version="1.1">
<g id="surface1">
<path style=" stroke:none;fill-rule:nonzero;fill:rgb(72.54902%,71.372549%,47.058824%);fill-opacity:1;" d="M 20 0 C 31.046875 0 40 8.953125 40 20 C 40 31.046875 31.046875 40 20 40 C 8.953125 40 0 31.046875 0 20 C 0 8.953125 8.953125 0 20 0 Z M 20 0 "/>
<path style=" stroke:none;fill-rule:nonzero;fill:rgb(0%,0%,0%);fill-opacity:0.701961;" d="M 9.800781 20 C 9.800781 17.292969 10.875 14.699219 12.789062 12.789062 C 14.699219 10.875 17.292969 9.800781 20 9.800781 C 22.707031 9.800781 25.300781 10.875 27.210938 12.789062 C 29.125 14.699219 30.199219 17.292969 30.199219 20 C 30.199219 22.707031 29.125 25.300781 27.210938 27.210938 C 25.300781 29.125 22.707031 30.199219 20 30.199219 C 17.292969 30.199219 14.699219 29.125 12.789062 27.210938 C 10.875 25.300781 9.800781 22.707031 9.800781 20 Z M 16.300781 12.199219 C 15.15625 12.746094 14.144531 13.535156 13.339844 14.511719 L 14.355469 17.8125 L 15.933594 18.339844 L 19.214844 15.84375 L 19.214844 14.144531 Z M 11.425781 20.996094 C 11.582031 22.351562 12.054688 23.617188 12.765625 24.707031 L 15.753906 24.707031 L 16.75 23.710938 L 15.457031 19.832031 L 13.851562 19.296875 Z M 18.25 28.453125 C 19.40625 28.6875 20.59375 28.6875 21.75 28.453125 L 22.988281 25.664062 L 22.027344 24.707031 L 17.972656 24.707031 L 17.015625 25.664062 Z M 27.234375 24.707031 C 27.925781 23.648438 28.390625 22.433594 28.558594 21.121094 L 26.136719 19.304688 L 24.542969 19.835938 L 23.25 23.710938 L 24.246094 24.707031 Z M 26.640625 14.488281 C 25.835938 13.519531 24.832031 12.738281 23.699219 12.199219 L 20.785156 14.144531 L 20.785156 15.84375 L 24.066406 18.339844 L 25.644531 17.816406 Z M 26.640625 14.488281 "/>
</g>
</svg>
