<?xml version="1.0" encoding="UTF-8"?>
<svg xmlns="http://www.w3.org/2000/svg" xmlns:xlink="http://www.w3.org/1999/xlink" width="40px" height="40px" viewBox="0 0 40 40" version="1.1">
<g id="surface1">
<path style=" stroke:none;fill-rule:nonzero;fill:rgb(26.666667%,67.058824%,72.54902%);fill-opacity:1;" d="M 20 0 C 31.046875 0 40 8.953125 40 20 C 40 31.046875 31.046875 40 20 40 C 8.953125 40 0 31.046875 0 20 C 0 8.953125 8.953125 0 20 0 Z M 20 0 "/>
<path style=" stroke:none;fill-rule:nonzero;fill:rgb(0%,0%,0%);fill-opacity:0.701961;" d="M 23 27.199219 L 11 27.199219 C 10.671875 27.199219 10.398438 27.46875 10.398438 27.800781 L 10.398438 29 C 10.398438 29.328125 10.671875 29.601562 11 29.601562 L 23 29.601562 C 23.328125 29.601562 23.601562 29.328125 23.601562 29 L 23.601562 27.800781 C 23.601562 27.46875 23.328125 27.199219 23 27.199219 Z M 28.894531 14.421875 L 25.859375 11.386719 C 25.625 11.152344 25.242188 11.152344 25.011719 11.386719 L 24.585938 11.808594 C 24.355469 12.042969 24.355469 12.425781 24.585938 12.65625 L 26 14.070312 L 26 16.398438 C 26 17.453125 26.785156 18.324219 27.800781 18.46875 L 27.800781 24.5 C 27.800781 24.996094 27.394531 25.398438 26.898438 25.398438 C 26.40625 25.398438 26 24.996094 26 24.5 L 26 23.300781 C 26 21.476562 24.523438 20 22.699219 20 L 22.398438 20 L 22.398438 12.800781 C 22.398438 11.476562 21.324219 10.398438 20 10.398438 L 14 10.398438 C 12.675781 10.398438 11.601562 11.476562 11.601562 12.800781 L 11.601562 26 L 22.398438 26 L 22.398438 21.800781 L 22.699219 21.800781 C 23.527344 21.800781 24.199219 22.472656 24.199219 23.300781 L 24.199219 24.34375 C 24.199219 25.757812 25.210938 27.042969 26.617188 27.1875 C 28.230469 27.351562 29.601562 26.082031 29.601562 24.5 L 29.601562 16.121094 C 29.601562 15.484375 29.34375 14.875 28.894531 14.421875 Z M 20 17.601562 L 14 17.601562 L 14 12.800781 L 20 12.800781 Z M 20 17.601562 "/>
</g>
</svg>
