<?xml version="1.0" encoding="UTF-8"?>
<svg xmlns="http://www.w3.org/2000/svg" xmlns:xlink="http://www.w3.org/1999/xlink" width="40px" height="40px" viewBox="0 0 40 40" version="1.1">
<g id="surface1">
<path style=" stroke:none;fill-rule:nonzero;fill:rgb(36.862745%,78.039216%,63.137255%);fill-opacity:1;" d="M 20 0 C 31.046875 0 40 8.953125 40 20 C 40 31.046875 31.046875 40 20 40 C 8.953125 40 0 31.046875 0 20 C 0 8.953125 8.953125 0 20 0 Z M 20 0 "/>
<path style=" stroke:none;fill-rule:nonzero;fill:rgb(0%,0%,0%);fill-opacity:0.701961;" d="M 28 30.398438 L 11.800781 30.398438 L 11.800781 28.195312 C 11.800781 27.644531 12.246094 27.195312 12.800781 27.195312 L 27 27.195312 C 27.550781 27.195312 28 27.644531 28 28.195312 Z M 24.941406 12.738281 L 22.238281 12.738281 L 22.238281 10.398438 C 22.238281 9.847656 21.789062 9.398438 21.238281 9.398438 L 18.789062 9.398438 C 18.234375 9.398438 17.789062 9.847656 17.789062 10.398438 L 17.789062 12.738281 L 14.859375 12.738281 L 14.859375 10.398438 C 14.859375 9.847656 14.414062 9.398438 13.859375 9.398438 L 12.933594 9.398438 C 12.378906 9.398438 11.933594 9.847656 11.933594 10.398438 L 11.933594 15.46875 L 27.867188 15.46875 L 27.867188 10.398438 C 27.867188 9.847656 27.421875 9.398438 26.867188 9.398438 L 25.941406 9.398438 C 25.386719 9.398438 24.941406 9.847656 24.941406 10.398438 Z M 26.199219 16.328125 L 13.597656 16.328125 L 13.597656 26.34375 L 26.199219 26.34375 Z M 26.199219 16.328125 "/>
</g>
</svg>
