<?xml version="1.0" encoding="UTF-8"?>
<svg xmlns="http://www.w3.org/2000/svg" xmlns:xlink="http://www.w3.org/1999/xlink" width="40px" height="40px" viewBox="0 0 40 40" version="1.1">
<g id="surface1">
<path style=" stroke:none;fill-rule:nonzero;fill:rgb(71.764706%,72.54902%,26.666667%);fill-opacity:1;" d="M 20 0 C 31.046875 0 40 8.953125 40 20 C 40 31.046875 31.046875 40 20 40 C 8.953125 40 0 31.046875 0 20 C 0 8.953125 8.953125 0 20 0 Z M 20 0 "/>
<path style=" stroke:none;fill-rule:nonzero;fill:rgb(0%,0%,0%);fill-opacity:0.701961;" d="M 28.21875 16.542969 L 23 19.863281 L 23 17.300781 C 23 16.589844 22.214844 16.160156 21.617188 16.542969 L 16.398438 19.863281 L 16.398438 12.5 C 16.398438 12.003906 15.996094 11.601562 15.5 11.601562 L 11.300781 11.601562 C 10.804688 11.601562 10.398438 12.003906 10.398438 12.5 L 10.398438 27.5 C 10.398438 27.996094 10.804688 28.398438 11.300781 28.398438 L 28.699219 28.398438 C 29.195312 28.398438 29.601562 27.996094 29.601562 27.5 L 29.601562 17.300781 C 29.601562 16.589844 28.816406 16.160156 28.21875 16.542969 Z M 28.21875 16.542969 "/>
</g>
</svg>
