<?xml version="1.0" encoding="UTF-8"?>
<svg xmlns="http://www.w3.org/2000/svg" xmlns:xlink="http://www.w3.org/1999/xlink" width="40px" height="40px" viewBox="0 0 40 40" version="1.1">
<g id="surface1">
<path style=" stroke:none;fill-rule:nonzero;fill:rgb(47.058824%,50.980392%,72.54902%);fill-opacity:1;" d="M 20 0 C 31.046875 0 40 8.953125 40 20 C 40 31.046875 31.046875 40 20 40 C 8.953125 40 0 31.046875 0 20 C 0 8.953125 8.953125 0 20 0 Z M 20 0 "/>
<path style=" stroke:none;fill-rule:nonzero;fill:rgb(0%,0%,0%);fill-opacity:0.701961;" d="M 14.78125 20 C 16.378906 20 17.679688 18.691406 17.679688 17.082031 C 17.679688 15.476562 16.378906 14.167969 14.78125 14.167969 C 13.179688 14.167969 11.878906 15.476562 11.878906 17.082031 C 11.878906 18.691406 13.179688 20 14.78125 20 Z M 27.539062 15.332031 L 19.421875 15.332031 C 19.097656 15.332031 18.839844 15.59375 18.839844 15.917969 L 18.839844 21.167969 L 10.71875 21.167969 L 10.71875 13.582031 C 10.71875 13.261719 10.460938 13 10.140625 13 L 8.980469 13 C 8.660156 13 8.398438 13.261719 8.398438 13.582031 L 8.398438 26.417969 C 8.398438 26.738281 8.660156 27 8.980469 27 L 10.140625 27 C 10.460938 27 10.71875 26.738281 10.71875 26.417969 L 10.71875 24.667969 L 29.28125 24.667969 L 29.28125 26.417969 C 29.28125 26.738281 29.539062 27 29.859375 27 L 31.019531 27 C 31.339844 27 31.601562 26.738281 31.601562 26.417969 L 31.601562 19.417969 C 31.601562 17.160156 29.78125 15.332031 27.539062 15.332031 Z M 27.539062 15.332031 "/>
</g>
</svg>
