<?xml version="1.0" encoding="UTF-8"?>
<svg xmlns="http://www.w3.org/2000/svg" xmlns:xlink="http://www.w3.org/1999/xlink" width="40px" height="40px" viewBox="0 0 40 40" version="1.1">
<g id="surface1">
<path style=" stroke:none;fill-rule:nonzero;fill:rgb(38.431373%,72.54902%,26.666667%);fill-opacity:1;" d="M 20 0 C 31.046875 0 40 8.953125 40 20 C 40 31.046875 31.046875 40 20 40 C 8.953125 40 0 31.046875 0 20 C 0 8.953125 8.953125 0 20 0 Z M 20 0 "/>
<path style=" stroke:none;fill-rule:nonzero;fill:rgb(0%,0%,0%);fill-opacity:0.701961;" d="M 12.648438 30.398438 L 12.648438 28.320312 L 18.949219 28.320312 L 18.949219 24.160156 L 16.851562 24.160156 C 15.398438 24.160156 14.160156 23.652344 13.136719 22.636719 C 12.109375 21.625 11.597656 20.398438 11.601562 18.960938 C 11.601562 17.921875 11.890625 16.960938 12.464844 16.085938 C 13.042969 15.210938 13.824219 14.574219 14.800781 14.175781 C 14.960938 12.875 15.535156 11.789062 16.523438 10.914062 C 17.511719 10.035156 18.671875 9.597656 20 9.601562 C 21.328125 9.601562 22.488281 10.039062 23.480469 10.914062 C 24.46875 11.789062 25.039062 12.875 25.199219 14.175781 C 26.175781 14.574219 26.957031 15.210938 27.535156 16.085938 C 28.109375 16.964844 28.398438 17.921875 28.398438 18.960938 C 28.398438 20.398438 27.886719 21.625 26.863281 22.640625 C 25.839844 23.652344 24.601562 24.160156 23.148438 24.160156 L 21.050781 24.160156 L 21.050781 28.320312 L 27.351562 28.320312 L 27.351562 30.398438 Z M 12.648438 30.398438 "/>
</g>
</svg>
