<?xml version="1.0" encoding="UTF-8"?>
<svg xmlns="http://www.w3.org/2000/svg" xmlns:xlink="http://www.w3.org/1999/xlink" width="40px" height="40px" viewBox="0 0 40 40" version="1.1">
<g id="surface1">
<path style=" stroke:none;fill-rule:nonzero;fill:rgb(64.313725%,47.058824%,72.54902%);fill-opacity:1;" d="M 20 0.0976562 C 31.046875 0.0976562 40 9.007812 40 20 C 40 30.992188 31.046875 39.902344 20 39.902344 C 8.953125 39.902344 0 30.992188 0 20 C 0 9.007812 8.953125 0.0976562 20 0.0976562 Z M 20 0.0976562 "/>
<path style=" stroke:none;fill-rule:nonzero;fill:rgb(0%,0%,0%);fill-opacity:0.701961;" d="M 20 23.085938 C 21.765625 23.085938 23.199219 21.703125 23.199219 20 C 23.199219 18.296875 21.765625 16.914062 20 16.914062 C 18.234375 16.914062 16.800781 18.296875 16.800781 20 C 16.800781 21.703125 18.234375 23.085938 20 23.085938 Z M 20 23.085938 "/>
<path style=" stroke:none;fill-rule:nonzero;fill:rgb(0%,0%,0%);fill-opacity:0.701961;" d="M 17.058594 10.148438 L 15.265625 12.117188 L 12.160156 12.117188 C 11.082031 12.117188 10.199219 13.003906 10.199219 14.085938 L 10.199219 25.894531 C 10.199219 26.976562 11.082031 27.859375 12.160156 27.859375 L 27.839844 27.859375 C 28.917969 27.859375 29.800781 26.976562 29.800781 25.894531 L 29.800781 14.085938 C 29.800781 13.003906 28.917969 12.117188 27.839844 12.117188 L 24.734375 12.117188 L 22.941406 10.148438 Z M 20 24.910156 C 17.296875 24.910156 15.101562 22.703125 15.101562 19.988281 C 15.101562 17.273438 17.296875 15.070312 20 15.070312 C 22.703125 15.070312 24.898438 17.273438 24.898438 19.988281 C 24.898438 22.703125 22.703125 24.910156 20 24.910156 Z M 20 24.910156 "/>
</g>
</svg>
