<?xml version="1.0" encoding="UTF-8"?>
<svg xmlns="http://www.w3.org/2000/svg" xmlns:xlink="http://www.w3.org/1999/xlink" width="40px" height="40px" viewBox="0 0 40 40" version="1.1">
<g id="surface1">
<path style=" stroke:none;fill-rule:nonzero;fill:rgb(26.666667%,58.823529%,72.54902%);fill-opacity:1;" d="M 20 0 C 31.046875 0 40 8.953125 40 20 C 40 31.046875 31.046875 40 20 40 C 8.953125 40 0 31.046875 0 20 C 0 8.953125 8.953125 0 20 0 Z M 20 0 "/>
<path style=" stroke:none;fill-rule:nonzero;fill:rgb(0%,0%,0%);fill-opacity:0.701961;" d="M 18.078125 30.199219 L 18.078125 26.160156 C 18.078125 25.625 18.292969 25.109375 18.671875 24.730469 C 19.050781 24.351562 19.5625 24.140625 20.101562 24.140625 C 20.636719 24.140625 21.148438 24.351562 21.527344 24.730469 C 21.90625 25.109375 22.121094 25.625 22.121094 26.160156 L 22.121094 30.199219 L 26.160156 30.199219 L 26.160156 20.101562 C 26.160156 19.925781 26.113281 19.753906 26.027344 19.601562 C 25.941406 19.449219 25.820312 19.324219 25.671875 19.234375 L 21.109375 16.5 L 21.109375 14.039062 L 23.128906 14.039062 L 23.128906 12.019531 L 21.109375 12.019531 L 21.109375 10 L 19.089844 10 L 19.089844 12.019531 L 17.070312 12.019531 L 17.070312 14.039062 L 19.089844 14.039062 L 19.089844 16.5 L 14.53125 19.234375 C 14.378906 19.324219 14.257812 19.449219 14.171875 19.601562 C 14.085938 19.753906 14.039062 19.925781 14.039062 20.101562 L 14.039062 30.199219 Z M 13.03125 30.199219 L 13.03125 22 L 10.558594 23.238281 C 10.390625 23.320312 10.25 23.449219 10.152344 23.609375 C 10.050781 23.769531 10 23.953125 10 24.140625 L 10 30.199219 C 11.011719 30.199219 12.019531 30.199219 13.03125 30.199219 Z M 29.640625 23.234375 L 27.171875 22 L 27.171875 30.199219 C 28.058594 30.199219 30.199219 30.199219 30.199219 30.199219 L 30.199219 24.140625 C 30.199219 23.757812 29.984375 23.40625 29.640625 23.234375 Z M 29.640625 23.234375 "/>
</g>
</svg>
