<?xml version="1.0" encoding="UTF-8"?>
<svg xmlns="http://www.w3.org/2000/svg" xmlns:xlink="http://www.w3.org/1999/xlink" width="40px" height="40px" viewBox="0 0 40 40" version="1.1">
<g id="surface1">
<path style=" stroke:none;fill-rule:nonzero;fill:rgb(26.666667%,67.058824%,72.54902%);fill-opacity:1;" d="M 20 0 C 31.046875 0 40 8.953125 40 20 C 40 31.046875 31.046875 40 20 40 C 8.953125 40 0 31.046875 0 20 C 0 8.953125 8.953125 0 20 0 Z M 20 0 "/>
<path style=" stroke:none;fill-rule:nonzero;fill:rgb(0%,0%,0%);fill-opacity:0.701961;" d="M 24.210938 10.40625 L 15.789062 10.40625 C 14.667969 10.40625 14.109375 10.40625 13.660156 10.683594 C 13.210938 10.960938 12.960938 11.460938 12.460938 12.464844 L 11.15625 15.765625 C 10.851562 16.527344 10.589844 17.425781 11.097656 18.070312 C 11.335938 18.375 11.664062 18.597656 12.035156 18.707031 C 12.40625 18.8125 12.800781 18.804688 13.167969 18.675781 C 13.535156 18.550781 13.851562 18.3125 14.074219 17.996094 C 14.296875 17.683594 14.417969 17.304688 14.417969 16.917969 C 14.417969 17.410156 14.613281 17.886719 14.964844 18.234375 C 15.3125 18.582031 15.785156 18.777344 16.277344 18.777344 C 16.773438 18.777344 17.246094 18.582031 17.59375 18.234375 C 17.945312 17.886719 18.140625 17.410156 18.140625 16.917969 C 18.140625 17.410156 18.335938 17.886719 18.683594 18.234375 C 19.035156 18.582031 19.507812 18.777344 20 18.777344 C 20.492188 18.777344 20.964844 18.582031 21.316406 18.234375 C 21.664062 17.886719 21.859375 17.410156 21.859375 16.917969 C 21.859375 17.410156 22.054688 17.886719 22.40625 18.234375 C 22.753906 18.582031 23.226562 18.777344 23.722656 18.777344 C 24.214844 18.777344 24.6875 18.582031 25.035156 18.234375 C 25.386719 17.886719 25.582031 17.410156 25.582031 16.917969 C 25.582031 17.304688 25.703125 17.683594 25.925781 17.996094 C 26.148438 18.3125 26.46875 18.550781 26.832031 18.675781 C 27.199219 18.804688 27.59375 18.8125 27.964844 18.703125 C 28.335938 18.59375 28.664062 18.375 28.902344 18.070312 C 29.410156 17.425781 29.148438 16.527344 28.84375 15.765625 L 27.539062 12.464844 C 27.039062 11.460938 26.789062 10.960938 26.339844 10.683594 C 25.890625 10.40625 25.332031 10.40625 24.210938 10.40625 Z M 24.210938 10.40625 "/>
<path style=" stroke:none;fill-rule:evenodd;fill:rgb(0%,0%,0%);fill-opacity:0.701961;" d="M 27.441406 28.3125 L 29.300781 28.3125 C 29.488281 28.3125 29.664062 28.386719 29.796875 28.519531 C 29.925781 28.648438 30 28.828125 30 29.011719 C 30 29.195312 29.925781 29.375 29.796875 29.503906 C 29.664062 29.636719 29.488281 29.710938 29.300781 29.710938 L 10.699219 29.710938 C 10.511719 29.710938 10.335938 29.636719 10.203125 29.503906 C 10.074219 29.375 10 29.195312 10 29.011719 C 10 28.828125 10.074219 28.648438 10.203125 28.519531 C 10.335938 28.386719 10.511719 28.3125 10.699219 28.3125 L 12.558594 28.3125 L 12.558594 20.175781 C 13.25 20.175781 13.890625 19.957031 14.417969 19.589844 C 14.964844 19.972656 15.613281 20.175781 16.277344 20.175781 C 16.972656 20.175781 17.613281 19.957031 18.140625 19.589844 C 18.683594 19.972656 19.335938 20.175781 20 20.175781 C 20.691406 20.175781 21.332031 19.957031 21.859375 19.589844 C 22.40625 19.972656 23.054688 20.175781 23.722656 20.175781 C 24.414062 20.175781 25.054688 19.957031 25.582031 19.589844 C 26.128906 19.972656 26.777344 20.175781 27.441406 20.175781 Z M 17.675781 28.3125 L 22.324219 28.3125 L 22.324219 25.753906 C 22.324219 24.886719 22.324219 24.453125 22.136719 24.128906 C 22.015625 23.914062 21.839844 23.738281 21.628906 23.617188 C 21.304688 23.429688 20.871094 23.429688 20 23.429688 C 19.128906 23.429688 18.695312 23.429688 18.371094 23.617188 C 18.160156 23.738281 17.984375 23.914062 17.863281 24.128906 C 17.675781 24.453125 17.675781 24.886719 17.675781 25.753906 Z M 17.675781 28.3125 "/>
</g>
</svg>
